<?xml version="1.0" encoding="utf-8"?>
<!-- Generator: Adobe Illustrator 20.1.0, SVG Export Plug-In . SVG Version: 6.00 Build 0)  -->
<svg version="1.1" id="Layer_1" xmlns="http://www.w3.org/2000/svg" xmlns:xlink="http://www.w3.org/1999/xlink" x="0px" y="0px"
	 viewBox="0 0 512 503.2" style="enable-background:new 0 0 512 503.2;" xml:space="preserve">
<style type="text/css">
	.st0{fill-rule:evenodd;clip-rule:evenodd;fill:#FFFFFF;}
	.st1{fill:#FFFFFF;}
</style>
<g>
	<path class="st0" d="M252.5,275.4c38.8,0,70.3-31.5,70.3-70.3c0-38.8-31.5-70.3-70.3-70.3c-38.8,0-70.3,31.5-70.3,70.3
		C182.2,243.9,213.7,275.4,252.5,275.4L252.5,275.4z M252.5,288.9c46.3,0,83.9-37.6,83.9-83.9c0-46.3-37.6-83.9-83.9-83.9
		c-46.3,0-83.9,37.6-83.9,83.9C168.6,251.4,206.2,288.9,252.5,288.9L252.5,288.9z"/>
	<path class="st1" d="M43.1,353.6c-1.1,0-2.1,0.2-2.8,0.7c-0.7,0.5-1,1.2-1,2.1v30.6c0,2.3-0.2,4.4-0.7,6.1c-0.4,1.7-1.2,3.4-2.1,5
		c-1,1.6-2.4,3.1-4.3,4.6c-1.7,1.4-3.4,2.3-4.9,2.7c1.3-0.9,2.6-2.1,3.7-3.5c0.9-1.1,1.6-2.2,2.3-3.3c0.6-1.1,1.1-2.6,1.3-4.5
		c0.3-1.8,0.4-3.5,0.4-5v-4.4v-3.9v-3.4v-2.9v-2.4V370v-1.7v-1.5v-1.3v-1.1v-0.8c0-0.9,0-1.8,0-2.6c0-0.9,0-1.7,0-2.5
		c0-1.7-0.3-2.9-0.9-3.8c-0.6-0.8-1.8-1.2-3.4-1.2l0.3-0.5h12.5L43.1,353.6L43.1,353.6z M68.8,389.1v-30.5c0-1.7-0.3-2.9-0.9-3.8
		c-0.6-0.8-1.7-1.2-3.4-1.2l0.4-0.5h23.8l1.8,5.9l-0.4,0.3c-0.7-1.5-1.3-2.5-1.8-3c-1-1.1-2.5-1.6-4.5-1.6H73.2v17.1l8.2-0.1
		c1.7,0,2.9-0.3,3.6-0.8c0.9-0.7,1.3-1.8,1.3-3.4l0.6-0.1v9.7h-0.6c0-2.5-1-3.7-2.9-3.7c-1.8,0-3.6,0-5.3,0c-1.7,0-3.4,0-5,0
		l0.1,14.8c0.2,1,0.6,1.7,1.3,2.1c0.7,0.4,1.7,0.6,2.9,0.7c1.3,0.1,2.8,0.2,4.7,0.2c0.8,0,1.6,0,2.3,0c0.7,0,1.4,0,2.1,0
		c1.5,0,2.9-0.6,4.2-1.9c1.1-1,2.2-2.5,3.2-4.5l0.3,0.3l-2.7,7.6H64.6L65,392C67.5,392,68.8,391,68.8,389.1L68.8,389.1z M144,359.3
		c-0.3-1.8-0.8-3-1.4-3.5c-0.8-0.7-2-1.1-3.6-1.1h-9.7c0,3.8,0,9.1,0,16.2c0,7,0,12.4,0,16.1c0,1.7,0.3,3,0.9,3.8
		c0.6,0.8,1.7,1.2,3.4,1.2l-0.4,0.6h-12.5l0.4-0.6c2.5,0,3.7-1,3.7-2.9v-34.4h-7.4c-2.1,0-3.9,0.5-5.5,1.6c-1.1,0.7-2.2,1.7-3.2,3
		l-0.5-0.2l3.9-6h32.3l0.1,5.9L144,359.3L144,359.3z M229.8,359.3c-0.3-1.8-0.8-3-1.4-3.5c-0.8-0.7-2-1.1-3.6-1.1h-9.7
		c0,3.8,0,9.1,0,16.2c0,7,0,12.4,0,16.1c0,1.7,0.3,3,0.9,3.8c0.6,0.8,1.7,1.2,3.4,1.2l-0.4,0.6h-12.4l0.4-0.6c2.5,0,3.7-1,3.7-2.9
		v-34.4h-7.4c-2.1,0-3.9,0.5-5.5,1.6c-1.1,0.7-2.2,1.7-3.2,3l-0.5-0.2l3.9-6h32.3l0.1,5.9L229.8,359.3L229.8,359.3z M285.8,394
		c-3.8,0-7.2-1-10.3-2.9c-2.6-1.6-5.1-4-7.6-7.2c-1.6-2.2-3.6-5.2-5.8-9.1c-1.2,0-2.2,0-2.8,0c-0.7,0-1.1,0-1.4,0l0.5-0.5
		c3.5,0,6.2-1,8.3-3c2.1-2,3.1-4.4,3.1-7.4c0-2.6-1-4.8-3-6.4c-2.2-1.8-5.6-2.7-9.9-2.7l-0.3,0.4v4.1v3.5v3v2.6v2.3v2v1.7v1.5v1.5
		v1.3v1.1v0.8v0.8c0,0.8,0,1.7,0,2.5c0,0.8,0,1.7,0,2.5v0.6c0,1.7,0.3,3,0.9,3.8c0.6,0.8,1.7,1.2,3.3,1.2l-0.4,0.6h-12.5l0.4-0.6
		c2.6,0,3.9-1,3.9-2.9c0-3.1,0-7.3,0-12.3s0-11.1,0-18.2c0-1.7-0.3-2.9-0.9-3.8c-0.6-0.8-1.7-1.2-3.4-1.2l0.4-0.5h12.5
		c4.2,0,7.6,1.1,10,3.2c2.1,1.9,3.2,4.3,3.2,7.2c0,5.5-2.5,9-7.5,10.6c2.4,4.5,5.3,8.5,8.5,12c4,4.3,8,6.9,11.7,7.7l0.1,0.2
		L285.8,394L285.8,394z M334.4,392.5h-12.5l0.4-0.5c1,0,1.8-0.2,2.4-0.5c0.6-0.3,0.9-0.8,0.9-1.6c0-0.3-0.1-0.6-0.2-1
		c-1.1-3-2.4-6.5-3.9-10.3h-15.7l-4.4,10.4c-0.2,0.4-0.3,0.8-0.3,1.3c0,0.6,0.4,1,1.1,1.3c0.8,0.2,1.8,0.4,3.2,0.4l-0.4,0.5h-11.3
		l0.4-0.5c1.5,0,2.6-0.1,3.2-0.4c1-0.4,1.8-1.2,2.3-2.5l15.1-36.6h0.5l1.5,4.1c1.3,3.2,2.9,7.3,5,12.3c0.8,1.9,2.3,5.5,4.4,10.6
		c1,2.5,2.1,5.1,3.2,7.6c0.8,1.8,1.4,2.9,1.8,3.4c0.8,0.9,2,1.4,3.5,1.4L334.4,392.5L334.4,392.5z M313.7,359.5v-0.8l-7.3,18.3h14.4
		L313.7,359.5L313.7,359.5z M385.7,353.6c-1.5,0-2.7,0.2-3.5,0.5c-0.8,0.3-1.5,1.1-2,2.4l-15.1,36.6h-0.5l-1.5-4.1
		c-3-7.5-5.4-13.4-7.3-17.9c-2.1-5-3.9-9.2-5.3-12.5c-0.9-2.2-1.8-3.6-2.5-4.1c-0.7-0.5-1.7-0.8-2.9-0.8l0.4-0.5h12.5l-0.4,0.5
		c-1,0-1.8,0.2-2.4,0.5c-0.6,0.3-0.9,0.8-0.9,1.6c0,0.3,0.1,0.6,0.2,1c1.2,3.3,2.8,7.5,4.7,12.4c0,0,1.6,4,4.8,11.8
		c0.7,1.8,1.4,3.6,2.2,5.3l0,0.8l12.3-30.4c0.2-0.4,0.3-0.8,0.3-1.3c0-0.6-0.4-1-1.1-1.3c-0.8-0.2-1.8-0.4-3.2-0.4l0.4-0.5h11.2
		L385.7,353.6L385.7,353.6z M405.6,389.1v-30.5c0-1.7-0.3-2.9-0.9-3.8c-0.6-0.8-1.7-1.2-3.4-1.2l0.4-0.5h23.8l1.8,5.9l-0.4,0.3
		c-0.7-1.5-1.3-2.5-1.8-3c-1-1.1-2.5-1.6-4.5-1.6H410v17.1l8.2-0.1c1.7,0,2.9-0.3,3.6-0.8c0.9-0.7,1.3-1.8,1.3-3.4l0.6-0.1v9.7h-0.6
		c0-2.5-1-3.7-2.9-3.7c-1.8,0-3.6,0-5.3,0c-1.7,0-3.4,0-5,0l0.1,14.8c0.2,1,0.6,1.7,1.3,2.1c0.7,0.4,1.7,0.6,2.9,0.7
		c1.3,0.1,2.8,0.2,4.7,0.2c0.8,0,1.6,0,2.3,0c0.7,0,1.4,0,2.1,0c1.5,0,2.9-0.6,4.2-1.9c1.1-1,2.2-2.5,3.2-4.5l0.3,0.3l-2.7,7.6
		h-26.9l0.4-0.6C404.3,392,405.6,391,405.6,389.1L405.6,389.1z M481.9,392.5h-15.6h-11.3l0.4-0.6c2.5,0,3.7-1,3.7-2.9v-30.6
		c0-1.6-0.3-2.9-0.9-3.7c-0.6-0.8-1.7-1.2-3.4-1.2l0.3-0.5h12.5l-0.4,0.5c-1.1,0-2,0.2-2.7,0.7c-0.7,0.5-1,1.2-1,2.1v31.7
		c0.2,1,0.6,1.7,1.3,2c0.7,0.4,1.7,0.6,2.9,0.7c1.3,0.1,2.8,0.2,4.7,0.2c0.8,0,1.6,0,2.3,0c0.7,0,1.4,0,2.1,0c1.5,0,2.9-0.6,4.2-1.9
		c1.1-1,2.2-2.5,3.2-4.5l0.3,0.3L481.9,392.5L481.9,392.5z"/>
	<path class="st1" d="M241,230.1c0,7.3,0,14.4,0,20.9c0,49-33.4,65.3-39.2,69.9c-1.4,1.1-1.6,1.9-1.6,3.3c0,1.1,1.1,2.2,2.4,2.2
		c1.6,0,4.1-1.4,6.6-3c22.8-15.2,50-34.5,49.7-74.3l-0.1-26.6l-0.3-50.9l-0.4-68.7l21.4-0.2l0-4.9h-62.3l0,4.9l21.3-0.1
		c1.3,20.3,1.9,54.8,2.2,88.9"/>
	<path class="st1" d="M258.8,222.6c22.1-8.8,46.9-19,50.8-46.9c-12.3,18.2-29.5,28.8-50.9,37.9l0-8.9c26.4-16.8,61.3-30.9,54.2-79.4
		c-4,25.9-7.4,30.5-22.8,44.8c-3.2,3-19.9,15.2-31.4,23.1l0-5.1c22.2-21.9,54.8-45.8,44.5-88.7c-1.9,28-23.7,49.9-44.6,72.2
		l-17.7,19.8c-17.3,21.2-28.8,44.2-18.3,74c0.3-5.7,0.2-10.8,1-16.5c1.2-8.5,8.1-14.1,17.5-18.8"/>
</g>
</svg>
