<?xml version="1.0" encoding="utf-8"?>
<!-- Generator: Adobe Illustrator 20.1.0, SVG Export Plug-In . SVG Version: 6.00 Build 0)  -->
<svg version="1.1" id="Layer_1" xmlns="http://www.w3.org/2000/svg" xmlns:xlink="http://www.w3.org/1999/xlink" x="0px" y="0px"
	 viewBox="0 0 512 503.2" style="enable-background:new 0 0 512 503.2;" xml:space="preserve">
<style type="text/css">
	.st0{fill:none;}
	.st1{fill:#FFFFFF;}
</style>
<rect x="187" y="-6" class="st0" width="512" height="503.2"/>
<g>
	<path class="st1" d="M438.1,23.9H73.9c-25.1,0-45.6,20.4-45.6,45.6v364.1c0,25.1,20.5,45.6,45.6,45.6h364.1
		c25.1,0,45.6-20.5,45.6-45.6V69.5C483.6,44.4,463.2,23.9,438.1,23.9L438.1,23.9z M256,160.5c50.1,0,91,40.9,91,91
		c0,50.1-40.9,91-91,91c-50.1,0-91-40.9-91-91C165,201.4,205.9,160.5,256,160.5L256,160.5z M85.3,433.6c-6.8,0-11.3-4.6-11.3-11.3
		V228.8h47.8c-2.4,6.9-2.4,16-2.4,22.8c0,75.2,61.5,136.6,136.6,136.6c75.1,0,136.6-61.5,136.6-136.6c0-6.8,0-15.9-2.3-22.8h47.8
		v193.5c0,6.8-4.6,11.3-11.3,11.3H85.3z M438.1,126.4c0,6.8-4.6,11.3-11.3,11.3h-45.6c-6.8,0-11.3-4.6-11.3-11.3V80.9
		c0-6.8,4.6-11.3,11.3-11.3h45.6c6.8,0,11.3,4.6,11.3,11.3V126.4z M438.1,126.4"/>
</g>
</svg>
