<?xml version="1.0" encoding="utf-8"?>
<!-- Generator: Adobe Illustrator 20.1.0, SVG Export Plug-In . SVG Version: 6.00 Build 0)  -->
<svg version="1.1" id="Layer_1" xmlns="http://www.w3.org/2000/svg" xmlns:xlink="http://www.w3.org/1999/xlink" x="0px" y="0px"
	 viewBox="0 0 512 503.2" style="enable-background:new 0 0 512 503.2;" xml:space="preserve">
<style type="text/css">
	.st0{fill:#FFFFFF;}
	.st1{fill:none;}
</style>
<g>
	<path class="st0" d="M61.8,0c33.5,0,61.8,28.2,61.8,61.8c0,35.3-30,62.7-61.8,61.8C29.2,124.5,0,97.1,0,61.8
		C-0.9,27.4,27.4,0,61.8,0"/>
	<path class="st0" d="M96.2,503.2H25.6c-9.7,0-17.7-7.9-17.7-17.7v-309c0-9.7,7.1-17.7,16.8-17.7h71.5c9.7,0,17.7,7.9,17.7,17.7
		v309.8C113.9,495.2,106,503.2,96.2,503.2"/>
	<path class="st0" d="M511.1,266.6c0-65.3-48.6-116.5-113.9-116.5h-18.5c-35.3,0-69.7,16.8-88.3,44.1c-6.2,6.2-8.8,8.8-8.8,8.8
		v-35.3c0-3.5-5.3-8.8-8.8-8.8h-88.3c-3.5,0-8.8,3.5-8.8,7.9v329.3c0,3.5,5.3,7.1,8.8,7.1h97.1c3.5,0,8.8-3.5,8.8-7.1V305.4
		c0-32.7,24.7-60,57.4-60.9c16.8,0,31.8,6.2,43.3,17.7c10.6,10.6,15,25.6,15,42.4v189.8c0,3.5,5.3,8.8,8.8,8.8h88.3
		c3.5,0,8.8-5.3,8.8-8.8V266.6H511.1z"/>
</g>
<rect x="187" y="-6" class="st1" width="512" height="503.2"/>
</svg>
