<?xml version="1.0" encoding="utf-8"?>
<!-- Generator: Adobe Illustrator 20.1.0, SVG Export Plug-In . SVG Version: 6.00 Build 0)  -->
<svg version="1.1" id="Layer_1" xmlns="http://www.w3.org/2000/svg" xmlns:xlink="http://www.w3.org/1999/xlink" x="0px" y="0px"
	 viewBox="0 0 2000 2000" style="enable-background:new 0 0 2000 2000;" xml:space="preserve">
<g>
	<g>
		<path d="M1787.7,1717.1l-91.6-91.7c-19.5-19.5-51.2-19.5-70.7,0c-19.5,19.5-19.5,51.2,0,70.7l91.6,91.7
			c9.8,9.8,22.6,14.6,35.3,14.6s25.6-4.9,35.3-14.6C1807.3,1768.4,1807.3,1736.7,1787.7,1717.1z"/>
	</g>
</g>
<g>
	<g>
		<path d="M697.8,627.1L215.6,144.9c-19.5-19.5-51.2-19.5-70.7,0c-19.5,19.5-19.5,51.2,0,70.7l482.3,482.3
			c9.8,9.8,22.6,14.6,35.3,14.6c12.8,0,25.6-4.9,35.3-14.6C717.4,678.3,717.4,646.7,697.8,627.1z"/>
	</g>
</g>
<g>
	<g>
		<path d="M1861.4,1179l-295.3-79.2c-26.8-7.1-54.1,8.6-61.3,35.4c-7.1,26.7,8.7,54.1,35.3,61.2l295.3,79.2c4.4,1.2,8.7,1.7,13,1.7
			c22.1,0,42.3-14.7,48.3-37.1C1903.9,1213.6,1888,1186.2,1861.4,1179z"/>
	</g>
</g>
<g>
	<g>
		<path d="M237.4,743.9L62.9,697.1c-26.2-7-54,8.7-61.2,35.4c-7.1,26.7,8.7,54.1,35.4,61.2l174.5,46.7c4.3,1.2,8.6,1.7,12.9,1.7
			c22.1,0,42.3-14.7,48.3-37.1C280,778.4,264.2,751,237.4,743.9z"/>
	</g>
</g>
<g>
	<g>
		<path d="M1998.3,732.5c-7.2-26.7-34.2-42.5-61.3-35.4l-769.6,206.2l219-219.1c19.5-19.5,19.5-51.2,0-70.7
			c-19.5-19.5-51.2-19.5-70.7,0l-219.1,219.1l114-425.6c7.1-26.7-8.7-54.1-35.3-61.2c-27-7-54,8.7-61.3,35.4l-114,425.4l-65-242.6
			c-7.2-26.8-34.2-42.4-61.3-35.4c-26.7,7.1-42.5,34.6-35.3,61.2l65,242.7l-67.8-67.8c-19.5-19.5-51.2-19.5-70.7,0
			c-19.5,19.5-19.5,51.2,0,70.7l67.8,67.8L376.7,781.2c-26.9-7.2-54.1,8.7-61.3,35.4c-7.1,26.7,8.7,54.1,35.3,61.2L806.8,1000
			l-243.5,65.2c-26.7,7.1-42.5,34.6-35.3,61.2c6.1,22.4,26.3,37.1,48.3,37.1c4.3,0,8.6-0.5,13-1.7l243.5-65.2l-570.1,570.2
			c-19.5,19.5-19.5,51.2,0,70.7c9.8,9.8,22.6,14.6,35.3,14.6c12.8,0,25.6-4.9,35.3-14.6l570-570L822,1471
			c-7.1,26.7,8.7,54.1,35.3,61.2c4.4,1.2,8.7,1.7,13,1.7c22.1,0,42.3-14.7,48.3-37.1l81.4-303.6l18.9,70.7
			c6.1,22.4,26.3,37.1,48.3,37.1c4.3,0,8.6-0.5,13-1.7c26.7-7.1,42.5-34.6,35.3-61.2l-18.9-70.7l415.9,415.9
			c9.8,9.8,22.6,14.6,35.3,14.6c12.8,0,25.6-4.9,35.3-14.6c19.5-19.5,19.5-51.2,0-70.7l-416-416l208.5,55.9c4.4,1.2,8.7,1.7,13,1.7
			c22.1,0,42.3-14.7,48.3-37.1c7.1-26.7-8.7-54.1-35.3-61.2l-208.5-55.9l769.7-206.2C1989.6,786.6,2005.4,759.2,1998.3,732.5z"/>
	</g>
</g>
<g>
	<g>
		<path d="M460.7,1144.5c-7.2-26.7-34.8-42.5-61.2-35.4l-284.2,76.1c-26.8,7.1-42.6,34.6-35.4,61.2c6.1,22.4,26.3,37.1,48.3,37.1
			c4.3,0,8.6-0.5,12.9-1.7l284.2-76.1C452,1198.6,467.8,1171.2,460.7,1144.5z"/>
	</g>
</g>
<g>
	<g>
		<path d="M1783,216.9c-19.5-19.5-51.2-19.5-70.7,0l-265.6,265.6c-19.5,19.5-19.5,51.2,0,70.7c9.8,9.8,22.6,14.6,35.4,14.6
			s25.6-4.9,35.3-14.6L1783,287.6C1802.6,268,1802.6,236.4,1783,216.9z"/>
	</g>
</g>
<g>
	<g>
		<path d="M1261.4,24.7c-26.7-6.9-54.1,8.7-61.2,35.3l-14.1,52.2c-7.2,26.7,8.6,54.1,35.2,61.3c4.4,1.2,8.7,1.7,13,1.7
			c22.1,0,42.3-14.7,48.2-37l14.1-52.3C1303.9,59.3,1288.1,31.9,1261.4,24.7z"/>
	</g>
</g>
<g>
	<g>
		<path d="M834.4,1618.5c-26.8-7-54,8.6-61.3,35.4l-76,283.2c-7.1,26.7,8.7,54.1,35.3,61.2c4.4,1.2,8.7,1.7,13,1.7
			c22.1,0,42.3-14.7,48.3-37.1l76-283.2C876.9,1653.1,861,1625.7,834.4,1618.5z"/>
	</g>
</g>
<g>
	<g>
		<path d="M897,422.3L793.8,37.1c-7.2-26.7-34.4-42.4-61.3-35.4c-26.7,7.1-42.5,34.6-35.3,61.2l103.2,385.2
			c6.1,22.4,26.3,37.1,48.3,37.1c4.3,0,8.6-0.5,13-1.7C888.3,476.4,904.1,449,897,422.3z"/>
	</g>
</g>
<g>
	<g>
		<path d="M1273,1825.6l-116.4-434.5c-7.2-26.7-34.8-42.5-61.2-35.4c-26.8,7.1-42.6,34.6-35.4,61.2l116.4,434.5
			c6.1,22.4,26.3,37.1,48.3,37.1c4.3,0,8.6-0.5,12.9-1.7C1264.4,1879.7,1280.2,1852.3,1273,1825.6z"/>
	</g>
</g>
</svg>
